<svg width="1539" height="576" xmlns="http://www.w3.org/2000/svg" xmlns:xlink="http://www.w3.org/1999/xlink" xml:space="preserve" overflow="hidden"><defs><clipPath id="clip0"><rect x="254" y="471" width="1539" height="576"/></clipPath></defs><g clip-path="url(#clip0)" transform="translate(-254 -471)"><rect x="255.5" y="478.5" width="308" height="98" stroke="#000000" stroke-width="3.4375" stroke-miterlimit="8" fill="#FFFFFF"/><text font-family="Malgun Gothic,Malgun Gothic_MSFontService,sans-serif" font-weight="400" font-size="37" transform="matrix(1 0 0 1 372.424 519)">초안</text><text font-family="Malgun Gothic,Malgun Gothic_MSFontService,sans-serif" font-weight="400" font-size="37" transform="matrix(1 0 0 1 356.382 563)">(Draft)</text><rect x="255.5" y="932.5" width="308" height="98" stroke="#000000" stroke-width="3.4375" stroke-miterlimit="8" fill="#FFFFFF"/><text font-family="Malgun Gothic,Malgun Gothic_MSFontService,sans-serif" font-weight="400" font-size="37" transform="matrix(1 0 0 1 354.09 973)">연기됨</text><text font-family="Malgun Gothic,Malgun Gothic_MSFontService,sans-serif" font-weight="400" font-size="37" transform="matrix(1 0 0 1 331.747 1017)">(Deferred)</text><rect x="664.5" y="478.5" width="308" height="98" stroke="#000000" stroke-width="3.4375" stroke-miterlimit="8" fill="#FFFFFF"/><text font-family="Malgun Gothic,Malgun Gothic_MSFontService,sans-serif" font-weight="400" font-size="37" transform="matrix(1 0 0 1 763.227 519)">제안됨</text><text font-family="Malgun Gothic,Malgun Gothic_MSFontService,sans-serif" font-weight="400" font-size="37" transform="matrix(1 0 0 1 727.981 563)">(Proposed)</text><rect x="664.5" y="639.5" width="308" height="98" stroke="#000000" stroke-width="3.4375" stroke-miterlimit="8" fill="#FFFFFF"/><text font-family="Malgun Gothic,Malgun Gothic_MSFontService,sans-serif" font-weight="400" font-size="37" transform="matrix(1 0 0 1 763.215 680)">거절됨</text><text font-family="Malgun Gothic,Malgun Gothic_MSFontService,sans-serif" font-weight="400" font-size="37" transform="matrix(1 0 0 1 735.715 724)">(Rejected)</text><rect x="664.5" y="801.5" width="308" height="98" stroke="#000000" stroke-width="3.4375" stroke-miterlimit="8" fill="#FFFFFF"/><text font-family="Malgun Gothic,Malgun Gothic_MSFontService,sans-serif" font-weight="400" font-size="37" transform="matrix(1 0 0 1 763.227 842)">중단됨</text><text font-family="Malgun Gothic,Malgun Gothic_MSFontService,sans-serif" font-weight="400" font-size="37" transform="matrix(1 0 0 1 716.523 886)">(Withdrawn)</text><rect x="1073.5" y="478.5" width="308" height="98" stroke="#000000" stroke-width="3.4375" stroke-miterlimit="8" fill="#FFFFFF"/><text font-family="Malgun Gothic,Malgun Gothic_MSFontService,sans-serif" font-weight="400" font-size="37" transform="matrix(1 0 0 1 1110.18 519)">최종</text><text font-family="Malgun Gothic,Malgun Gothic_MSFontService,sans-serif" font-weight="400" font-size="37" transform="matrix(1 0 0 1 1183.51 519)">/</text><text font-family="Malgun Gothic,Malgun Gothic_MSFontService,sans-serif" font-weight="400" font-size="37" transform="matrix(1 0 0 1 1197.83 519)">활성화됨</text><text font-family="Malgun Gothic,Malgun Gothic_MSFontService,sans-serif" font-weight="400" font-size="37" transform="matrix(1 0 0 1 1120.22 563)">(Final/Active)</text><rect x="1073.5" y="730.5" width="308" height="97.9999" stroke="#000000" stroke-width="3.4375" stroke-miterlimit="8" fill="#FFFFFF"/><text font-family="Malgun Gothic,Malgun Gothic_MSFontService,sans-serif" font-weight="400" font-size="37" transform="matrix(1 0 0 1 1172.35 771)">대체됨</text><text font-family="Malgun Gothic,Malgun Gothic_MSFontService,sans-serif" font-weight="400" font-size="37" transform="matrix(1 0 0 1 1140.54 815)">(Replaced)</text><rect x="1482.5" y="478.5" width="309" height="98" stroke="#000000" stroke-width="3.4375" stroke-miterlimit="8" fill="#FFFFFF"/><text font-family="Malgun Gothic,Malgun Gothic_MSFontService,sans-serif" font-weight="400" font-size="37" transform="matrix(1 0 0 1 1581.46 519)">폐기됨</text><text font-family="Malgun Gothic,Malgun Gothic_MSFontService,sans-serif" font-weight="400" font-size="37" transform="matrix(1 0 0 1 1553.96 563)">(obsolete)</text><path d="M563.5 525.781 641.527 525.782 641.527 529.219 563.5 529.219ZM636.944 513.75 664.444 527.501 636.944 541.25Z"/><path d="M972.5 525.781 1050.53 525.782 1050.53 529.219 972.5 529.219ZM1045.94 513.75 1073.44 527.501 1045.94 541.25Z"/><path d="M6.14484e-06-1.71875 78.0271-1.71847 78.0271 1.71903-6.14484e-06 1.71875ZM73.4438-13.7497 100.944 0.000360892 73.4437 13.7503Z" transform="matrix(1 0 0 -1 1381.5 527.501)"/><path d="M1229.22 576.5 1229.22 707.428 1225.78 707.428 1225.78 576.5ZM1241.25 702.844 1227.5 730.344 1213.75 702.844Z"/><path d="M329.219 599.416 329.219 932.083 325.782 932.083 325.781 599.416ZM313.75 604 327.5 576.5 341.25 604Z"/><path d="M0-1.71875 275.326-1.71875 275.326 232.118 271.888 232.118 271.888 0 273.607 1.71875 0 1.71875ZM287.357 227.534 273.607 255.034 259.857 227.534Z" transform="matrix(1.83697e-16 1 1 -1.83697e-16 409.5 576.5)"/><path d="M0-1.71875 113.996-1.71875 113.996 181.646 110.559 181.646 110.559 0 112.278 1.71875 0 1.71875ZM126.028 177.062 112.278 204.562 98.5276 177.062Z" transform="matrix(1.83697e-16 1 1 -1.83697e-16 460.5 576.5)"/><path d="M289.219 576.5 289.219 909.166 285.781 909.166 285.781 576.5ZM301.25 904.583 287.5 932.083 273.75 904.583Z"/><path d="M972.5 555.781 986.25 555.781 986.25 559.219 972.5 559.219ZM996.562 555.781 1010.31 555.781 1010.31 559.219 996.562 559.219ZM1019.33 560.518 1019.33 574.268 1015.89 574.268 1015.89 560.518ZM1019.33 584.581 1019.33 598.331 1015.89 598.331 1015.89 584.581ZM1019.33 608.643 1019.33 622.393 1015.89 622.393 1015.89 608.643ZM1019.33 632.706 1019.33 646.456 1015.89 646.456 1015.89 632.706ZM1019.33 656.768 1019.33 670.518 1015.89 670.518 1015.89 656.768ZM1019.33 680.831 1019.33 690.247 1011.55 690.247 1011.55 686.809 1017.61 686.809 1015.89 688.528 1015.89 680.831ZM1001.24 690.247 997.604 690.247 997.604 686.809 1001.24 686.809ZM1002.19 702.278 974.687 688.528 1002.19 674.778Z"/></g></svg>